<svg xmlns="http://www.w3.org/2000/svg" xmlns:xlink="http://www.w3.org/1999/xlink" fill="none" version="1.1" width="207" height="41" viewBox="0 0 295 58"><defs><linearGradient x1="1.0740890502929688" y1="0.7730056643486023" x2="0.4186890750930589" y2="0.18955803140109717" id="master_svg0_17_4566"><stop offset="0%" stop-color="#1a1a1a" stop-opacity="1"/><stop offset="56.02525472640991%" stop-color="#1a1a1a" stop-opacity="0.5864670276641846"/><stop offset="99.99999403953552%" stop-color="#1a1a1a" stop-opacity="0"/></linearGradient></defs><path d="M95,43.380535L95,6.574472L101.9829998,6.574472L117.557194,32.570402L113.867323,32.570402L129.150082,6.574472L136.133892,6.574472L136.20655399999998,43.380535L128.283943,43.380535L128.211285,18.851101L129.703564,18.851101L117.464134,39.464962L113.66976700000001,39.464962L101.169106,18.851101L102.9226108,18.851101L102.9226108,43.380535L95,43.380535ZM158.481293,37.228664Q160.675621,37.228664,162.373627,36.571411Q164.071609,35.914165,165.534492,34.494499L169.870911,39.226719Q165.90023,43.801178,158.27230500000002,43.801178Q153.517929,43.801178,149.86070999999998,41.934597Q146.203487,40.067989,144.218147,36.755444Q142.2328,33.442902000000004,142.2328,29.23649Q142.2328,25.082666,144.192024,21.74383Q146.151241,18.404993,149.57336,16.538398Q152.995464,14.671806,157.279636,14.671806Q161.302574,14.671806,164.594078,16.380658Q167.885559,18.089514,169.844788,21.323187Q171.804016,24.556864,171.804016,28.973593L151.01012,33.022264Q151.89829600000002,35.125469,153.80527899999998,36.177071Q155.712257,37.228664,158.481293,37.228664ZM157.279636,20.876257Q154.197121,20.876257,152.264023,22.8743Q150.330921,24.872345,150.226437,28.395214L163.914871,25.713627Q163.340172,23.505264,161.563797,22.19076Q159.787437,20.876257,157.279636,20.876257ZM177.289833,15.092447L185.44020799999998,15.092447L185.44020799999998,43.380535L177.289833,43.380535L177.289833,15.092447ZM181.365021,11.1489391Q179.118446,11.1489391,177.70780200000002,9.834437399999999Q176.297157,8.5199342,176.297157,6.574472Q176.297157,4.629004699999999,177.70780200000002,3.3145047Q179.118446,2,181.365021,2Q183.611595,2,185.02224,3.2619243Q186.432884,4.5238442,186.432884,6.4167314Q186.432884,8.4673543,185.02224,9.808146Q183.611595,11.1489391,181.365021,11.1489391ZM211.22929,44.000004Q206.91411,44.000004,203.27321999999998,42.606628Q199.63233,41.213253,196.95227,38.652439Q194.272217,36.091618,192.788925,32.616413Q191.30562600000002,29.141191,191.30562600000002,24.977505Q191.30562600000002,20.81382,192.788925,17.338603Q194.272217,13.863385,196.97841,11.3025703Q199.68456,8.7417564,203.34588,7.3483853Q207.00799,5.9550104,211.39584000000002,5.9550104Q216.26205,5.9550104,220.15683,7.5734906Q224.05243,9.1919732,226.69574,12.291734L221.29726,17.350103Q219.28906,15.224717,216.94615,14.199407Q214.60406999999998,13.174094,211.80155000000002,13.174094Q209.16558,13.174094,206.96799,14.0277Q204.7704,14.880482,203.17935,16.454602Q201.5891,18.028715,200.72541999999999,20.187792Q199.86172,22.346035,199.86172,24.977505Q199.86172,27.535854,200.72541999999999,29.704782Q201.5891,31.873716,203.17935,33.464258Q204.7704,35.053986,206.93126,35.917446Q209.09212,36.780914,211.70850000000002,36.780914Q214.23914000000002,36.780914,216.60246999999998,35.960171Q218.9666,35.138607,221.24502,33.181647999999996L226.02879,39.320366Q223.032,41.61253,219.09476999999998,42.806267Q215.15755000000001,44.000004,211.22929,44.000004ZM218.31351999999998,38.218651L218.31351999999998,24.390909L226.02879,24.390909L226.02879,39.320366L218.31351999999998,38.218651ZM247.45616,37.228664Q249.65048,37.228664,251.34848,36.571411Q253.04651,35.914165,254.50935,34.494499L258.84578,39.226719Q254.87509,43.801178,247.24716,43.801178Q242.49278,43.801178,238.83557,41.934597Q235.17838,40.067989,233.19301,36.755444Q231.20766,33.442902000000004,231.20766,29.23649Q231.20766,25.082666,233.16689,21.74383Q235.12611,18.404993,238.54823,16.538398Q241.97031,14.671806,246.25449,14.671806Q250.27742,14.671806,253.56894,16.380658Q256.86043,18.089514,258.81966,21.323187Q260.77887999999996,24.556864,260.77887999999996,28.973593L239.985,33.022264Q240.87318,35.125469,242.78014,36.177071Q244.68712,37.228664,247.45616,37.228664ZM246.25449,20.876257Q243.17198,20.876257,241.23891,22.8743Q239.30579,24.872345,239.20129,28.395214L252.88972,25.713627Q252.31503,23.505264,250.53867,22.19076Q248.76231,20.876257,246.25449,20.876257ZM283.34914000000003,14.671806Q288.57373,14.671806,291.78688,17.826611Q294.99998,20.981417,294.99998,27.185869L294.99998,43.380535L286.84961999999996,43.380535L286.84961999999996,28.447792Q286.84961999999996,25.082666,285.38671999999997,23.426395Q283.92386,21.770119,281.1548,21.770119Q278.07228,21.770119,276.24368000000004,23.689293Q274.41507,25.608461,274.41507,29.394234L274.41507,43.380535L266.26472,43.380535L266.26472,15.092447L274.04933,15.092447L274.04933,18.404993Q275.66898000000003,16.617269,278.07228,15.644538Q280.4756,14.671806,283.34914000000003,14.671806Z" fill="#1a1a1a" fill-opacity="1"/><path d="M104,4.1211477e-15L126.516659,43.5L81.4833398,43.5L104,4.1211477e-15Z" fill="url(#master_svg0_17_4566)" fill-opacity="1" transform="matrix(-1,0,0,1,156,0)"/><path d="M46.014397,38.87607799597168Q46.062103,38.96122599597168,46.104172,39.04929499597168Q46.14624,39.13736499597168,46.182495,39.227986995971676Q46.21875,39.31860899597168,46.249039,39.41139399597168Q46.279335,39.50417899597168,46.303532,39.59873799597168Q46.327721,39.69329299597168,46.345718,39.78922099597168Q46.363716,39.88515299597168,46.375443,39.98204999597168Q46.387161,40.07894299597168,46.392563,40.17639699597168Q46.397964,40.27385499597168,46.397022,40.37145799597168Q46.396072,40.46905299597168,46.388783,40.56638099597168Q46.381493,40.66370999597168,46.367897,40.76036599597168Q46.354294,40.85701599597168,46.334442,40.95257799597168Q46.31459,41.04813999597168,46.288574,41.14221799597168Q46.26255,41.23628399597168,46.230461,41.32846299597168Q46.19838,41.42064499597168,46.160378,41.51054599597168Q46.122372,41.60044699597168,46.078606,41.68768499597168Q46.03484,41.77492699597168,45.985497,41.85913999597168Q45.936142,41.94334999597168,45.881424,42.02417599597168Q45.826706,42.10499799597168,45.766857,42.18209599597168Q45.707001,42.259191995971676,45.642262,42.33223499597168Q45.577526,42.40527899597168,45.508183,42.47396299597168Q45.438828,42.54263899597168,45.365158,42.60666799597168Q45.291489,42.67069399597168,45.213821,42.72979899597168Q45.136147,42.78889999597168,45.054794,42.842832995971676Q44.973442,42.89676499597168,44.888763,42.94529499597168Q44.804073,42.99381799597168,44.716412,43.03674099597168Q44.628754,43.07965999597168,44.53849,43.11679599597168Q44.448227,43.15392499597168,44.35574,43.18510999597168Q44.263252,43.21629899597168,44.168938,43.24141499597168Q44.074615,43.26652299597168,43.978859,43.28544399597168Q43.88311,43.30437299597168,43.786331,43.31703799597168Q43.689548,43.32969499597168,43.592155,43.33604199597168Q43.494759,43.34238999597168,43.39716,43.34238999597168L8.6028385,43.34238999597168Q8.5052338,43.34238999597168,8.4078369,43.33604199597168Q8.3104401,43.32969499597168,8.2136612,43.31703799597168Q8.1168823,43.30437299597168,8.0211306,43.28544399597168Q7.9253798,43.26652299597168,7.8310623,43.24141499597168Q7.736743,43.21629899597168,7.6442556,43.18511399597168Q7.5517683,43.15392499597168,7.4615045,43.11679599597168Q7.3712397,43.07965999597168,7.2835798,43.03673699597168Q7.1959209,42.99381799597168,7.111237,42.94529499597168Q7.0265522,42.89676499597168,6.9452009,42.842832995971676Q6.8638496,42.78889999597168,6.7861767,42.72979899597168Q6.7085028,42.67069399597168,6.6348362,42.60666499597168Q6.5611687,42.54263899597168,6.4918194,42.47396299597168Q6.4224691,42.40527899597168,6.3577299,42.33223499597168Q6.2929912,42.259191995971676,6.2331376,42.18209599597168Q6.1732836,42.10499799597168,6.1185675,42.02417199597168Q6.0638514,41.94334999597168,6.0145054,41.85913999597168Q5.965158,41.77492699597168,5.9213886,41.68768499597168Q5.8776197,41.60044699597168,5.8396144,41.51054599597168Q5.8016081,41.42064499597168,5.7695265,41.32846299597168Q5.7374454,41.23628399597168,5.7114239,41.14221799597168Q5.685401,41.04813999597168,5.6655488,40.95257799597168Q5.6456962,40.85701599597168,5.6320977,40.76036599597168Q5.6184988,40.66370999597168,5.6112113,40.56638099597168Q5.6039238,40.46905299597168,5.6029787,40.37145799597168Q5.6020327,40.27385499597168,5.6074324,40.17639699597168Q5.6128325,40.07893899597168,5.6245561,39.98204599597168Q5.6362791,39.88514899597168,5.6542759,39.78922099597168Q5.6722732,39.69329299597168,5.6964684,39.59873799597168Q5.7206621,39.50417899597168,5.7509518,39.41139399597168Q5.7812414,39.31860899597168,5.8174982,39.227986995971676Q5.853754,39.13736499597168,5.8958249,39.04929499597168Q5.9378948,38.96122599597168,5.9856014,38.87607799597168L23.382763,7.823706195971679Q23.431356,7.736968995971679,23.485588,7.65363879597168Q23.539818,7.57030959597168,23.599447,7.49075369597168Q23.659077,7.41119769597168,23.723843,7.33576389597168Q23.788607,7.26033069597168,23.858225,7.189350595971679Q23.927841,7.11837049597168,24.002007,7.05215549597168Q24.076172,6.98594069597168,24.154558,6.92478129597168Q24.232943,6.863622195971679,24.315207,6.807786895971679Q24.397469,6.75195169597168,24.48325,6.70168539597168Q24.569027,6.6514191959716795,24.657948,6.6069426959716795Q24.746864,6.56246569597168,24.838535,6.52397389597168Q24.930202,6.485482195971679,25.02422,6.4531440959716795Q25.118237,6.42080589597168,25.214188,6.39476369597168Q25.310139,6.36872149597168,25.407602,6.34908909597168Q25.505068,6.32945679597168,25.603619,6.31632039597168Q25.702169,6.303183995971679,25.801374,6.29660129597168Q25.900578,6.29001879597168,26,6.29001879597168Q26.099422,6.29001879597168,26.198626,6.29660149597168Q26.297829,6.303183995971679,26.396381,6.31632039597168Q26.49493,6.32945679597168,26.592396,6.34908909597168Q26.689861,6.36872149597168,26.785812,6.3947639959716795Q26.881763,6.420806395971679,26.975779,6.453144295971679Q27.069794,6.485482195971679,27.161463,6.52397419597168Q27.253132,6.5624658959716795,27.342049,6.6069423959716795Q27.430969,6.6514191959716795,27.51675,6.70168539597168Q27.602528,6.75195169597168,27.684792,6.807786895971679Q27.767056,6.863622195971679,27.84544,6.92478129597168Q27.923826,6.98594069597168,27.99799,7.052155695971679Q28.072155,7.11837049597168,28.141773,7.189350595971679Q28.21139,7.26033069597168,28.276155,7.33576389597168Q28.340919,7.41119769597168,28.400549,7.49075369597168Q28.460178,7.57030959597168,28.51441,7.653639295971679Q28.568642,7.736968995971679,28.617237,7.823706195971679L46.014397,38.87607799597168Z" fill="#1a1a1a" fill-opacity="1"/></svg>